<?xml version="1.0" standalone="no"?>
<!DOCTYPE svg PUBLIC "-//W3C//DTD SVG 20010904//EN"
 "http://www.w3.org/TR/2001/REC-SVG-20010904/DTD/svg10.dtd">
<svg version="1.0" xmlns="http://www.w3.org/2000/svg"
 width="500.000000pt" height="500.000000pt" viewBox="0 0 500.000000 500.000000"
 preserveAspectRatio="xMidYMid meet">
<metadata>
Created by potrace 1.11, written by Peter Selinger 2001-2013
</metadata>
<g transform="translate(0.000000,500.000000) scale(0.100000,-0.100000)"
fill="#000000" stroke="none">
<path d="M2340 3853 c-514 -51 -902 -307 -1105 -728 -162 -337 -185 -794 -59
-1157 153 -439 493 -732 975 -840 93 -21 129 -23 344 -23 263 0 332 9 519 66
196 60 361 156 500 289 74 71 159 179 194 247 11 20 -4 30 -301 203 -171 101
-315 184 -318 186 -3 2 -20 -18 -37 -44 -74 -115 -205 -207 -339 -238 -85 -20
-241 -22 -313 -5 -204 50 -354 222 -404 463 -21 101 -21 295 0 395 51 249 202
417 420 469 82 19 228 14 314 -12 120 -35 254 -128 327 -227 l21 -27 311 186
c171 103 311 192 311 198 0 22 -132 186 -201 250 -207 192 -489 312 -811 346
-88 9 -271 11 -348 3z"/>
<path d="M4249 1907 c-118 -40 -180 -95 -233 -207 -30 -62 -31 -71 -31 -190 0
-119 1 -128 31 -190 78 -164 207 -237 403 -228 122 6 192 32 264 98 208 190
174 555 -64 684 -111 61 -252 73 -370 33z"/>
</g>
</svg>
